<svg width="28" height="28" viewBox="0 0 28 28" fill="none" xmlns="http://www.w3.org/2000/svg">
<mask id="mask0_325_769" style="mask-type:luminance" maskUnits="userSpaceOnUse" x="2" y="1" width="25" height="26">
<path fill-rule="evenodd" clip-rule="evenodd" d="M2.33337 1.16687H26.2498V26.256H2.33337V1.16687Z" fill="white"/>
</mask>
<g mask="url(#mask0_325_769)">
<path fill-rule="evenodd" clip-rule="evenodd" d="M16.003 17.8398C17.4076 17.8398 18.551 18.975 18.551 20.3703V23.959C18.551 24.2588 18.7913 24.4991 19.0993 24.5061H21.323C23.0753 24.5061 24.4998 23.0991 24.4998 21.3701V11.1921C24.4916 10.5971 24.2081 10.0371 23.7216 9.66498L16.0298 3.53065C14.9973 2.71281 13.553 2.71281 12.517 3.53298L4.87763 9.66265C4.37246 10.0465 4.08896 10.6065 4.08313 11.212V21.3701C4.08313 23.0991 5.50763 24.5061 7.25996 24.5061H9.50463C9.8208 24.5061 10.0775 24.2553 10.0775 23.9473C10.0775 23.8796 10.0856 23.812 10.0996 23.7478V20.3703C10.0996 18.9831 11.236 17.8491 12.6301 17.8398H16.003ZM21.323 26.2561H19.0783C17.7926 26.2258 16.801 25.2166 16.801 23.959V20.3703C16.801 19.9398 16.4428 19.5898 16.003 19.5898H12.636C12.2055 19.5921 11.8496 19.9433 11.8496 20.3703V23.9473C11.8496 24.0348 11.838 24.1188 11.8135 24.1981C11.6875 25.3531 10.7005 26.2561 9.50463 26.2561H7.25996C4.5428 26.2561 2.33313 24.064 2.33313 21.3701V11.2038C2.3448 10.0441 2.87913 8.98248 3.80196 8.28365L11.4261 2.16448C13.105 0.834479 15.4441 0.834479 17.1195 2.16215L24.7985 8.28715C25.7003 8.97431 26.2346 10.0336 26.2498 11.1793V21.3701C26.2498 24.064 24.0401 26.2561 21.323 26.2561V26.2561Z" fill="#B4B4B4"/>
</g>
</svg>
