<svg width="44" height="44" viewBox="0 0 44 44" fill="none" xmlns="http://www.w3.org/2000/svg">
<mask id="mask0_325_777" style="mask-type:luminance" maskUnits="userSpaceOnUse" x="10" y="10" width="24" height="24">
<path fill-rule="evenodd" clip-rule="evenodd" d="M10.3334 10.3333H33.0563V33.0565H10.3334V10.3333Z" fill="white"/>
</mask>
<g mask="url(#mask0_325_777)">
<path fill-rule="evenodd" clip-rule="evenodd" d="M21.6953 12.0833C16.3951 12.0833 12.0831 16.3941 12.0831 21.6943C12.0831 26.9945 16.3951 31.3065 21.6953 31.3065C26.9943 31.3065 31.3063 26.9945 31.3063 21.6943C31.3063 16.3941 26.9943 12.0833 21.6953 12.0833M21.6953 33.0565C15.4303 33.0565 10.3331 27.9593 10.3331 21.6943C10.3331 15.4293 15.4303 10.3333 21.6953 10.3333C27.9603 10.3333 33.0563 15.4293 33.0563 21.6943C33.0563 27.9593 27.9603 33.0565 21.6953 33.0565" fill="#B4B4B4"/>
</g>
<mask id="mask1_325_777" style="mask-type:luminance" maskUnits="userSpaceOnUse" x="28" y="28" width="6" height="7">
<path fill-rule="evenodd" clip-rule="evenodd" d="M28.1133 28.6581H33.9747V34.5087H28.1133V28.6581Z" fill="white"/>
</mask>
<g mask="url(#mask1_325_777)">
<path fill-rule="evenodd" clip-rule="evenodd" d="M33.0999 34.5087C32.8771 34.5087 32.6531 34.4235 32.4816 34.2532L28.3702 30.1535C28.0284 29.8117 28.0272 29.2575 28.3691 28.9157C28.7097 28.5715 29.2639 28.5739 29.6069 28.9134L33.7182 33.0142C34.0601 33.356 34.0612 33.909 33.7194 34.2509C33.5491 34.4235 33.3239 34.5087 33.0999 34.5087" fill="#B4B4B4"/>
</g>
</svg>
